<svg width="80" height="92" viewBox="0 0 80 92" fill="none" xmlns="http://www.w3.org/2000/svg">
<g clip-path="url(#clip0_2153_783)">
<mask id="path-1-outside-1_2153_783" maskUnits="userSpaceOnUse" x="3" y="12.25" width="70" height="63" fill="black">
<rect fill="white" x="3" y="12.25" width="70" height="63"/>
<path d="M36.3523 72.114C19.4043 72.114 6.02834 59.422 6.02834 43.386C6.02834 27.122 19.5563 14.658 36.3523 14.658C51.7043 14.658 60.6723 20.13 65.9923 28.566C68.6523 32.746 69.9443 37.686 69.9443 43.386C69.9443 54.862 64.2443 63.45 54.8203 68.39C50.1843 70.822 44.0283 72.114 36.3523 72.114ZM34.5283 68.618C48.2843 68.618 59.6843 57.446 59.6843 43.462C59.6843 29.63 48.3603 18.306 34.5283 18.306C20.4683 18.306 9.60034 30.01 9.60034 43.462C9.60034 52.43 14.3883 60.866 22.0643 65.274C25.9403 67.478 30.0443 68.618 34.5283 68.618Z"/>
</mask>
<path d="M36.3523 72.114C19.4043 72.114 6.02834 59.422 6.02834 43.386C6.02834 27.122 19.5563 14.658 36.3523 14.658C51.7043 14.658 60.6723 20.13 65.9923 28.566C68.6523 32.746 69.9443 37.686 69.9443 43.386C69.9443 54.862 64.2443 63.45 54.8203 68.39C50.1843 70.822 44.0283 72.114 36.3523 72.114ZM34.5283 68.618C48.2843 68.618 59.6843 57.446 59.6843 43.462C59.6843 29.63 48.3603 18.306 34.5283 18.306C20.4683 18.306 9.60034 30.01 9.60034 43.462C9.60034 52.43 14.3883 60.866 22.0643 65.274C25.9403 67.478 30.0443 68.618 34.5283 68.618Z" fill="white"/>
<path d="M65.9923 28.566L64.109 29.7537L64.1139 29.7614L65.9923 28.566ZM54.8203 68.39L53.7866 66.418L53.786 66.4183L54.8203 68.39ZM22.0643 65.274L20.9555 67.2049L20.9638 67.2095L22.0643 65.274ZM36.3523 69.8874C20.5201 69.8874 8.25491 58.0814 8.25491 43.386H3.80178C3.80178 60.7626 18.2886 74.3406 36.3523 74.3406V69.8874ZM8.25491 43.386C8.25491 28.4809 20.6527 16.8846 36.3523 16.8846V12.4314C18.46 12.4314 3.80178 25.7631 3.80178 43.386H8.25491ZM36.3523 16.8846C51.0762 16.8846 59.2646 22.0718 64.109 29.7537L67.8757 27.3783C62.0801 18.1882 52.3325 12.4314 36.3523 12.4314V16.8846ZM64.1139 29.7614C66.5084 33.5242 67.7178 38.0323 67.7178 43.386H72.1709C72.1709 37.3397 70.7963 31.9678 67.8708 27.3706L64.1139 29.7614ZM67.7178 43.386C67.7178 53.9964 62.5112 61.8446 53.7866 66.418L55.8541 70.362C65.9775 65.0554 72.1709 55.7276 72.1709 43.386H67.7178ZM53.786 66.4183C49.5699 68.63 43.8024 69.8874 36.3523 69.8874V74.3406C44.2543 74.3406 50.7987 73.014 55.8547 70.3617L53.786 66.4183ZM34.5283 70.8446C49.5009 70.8446 61.9109 58.6888 61.9109 43.462H57.4578C57.4578 56.2032 47.0678 66.3914 34.5283 66.3914V70.8446ZM61.9109 43.462C61.9109 28.4003 49.59 16.0794 34.5283 16.0794V20.5326C47.1307 20.5326 57.4578 30.8597 57.4578 43.462H61.9109ZM34.5283 16.0794C19.1776 16.0794 7.37378 28.8422 7.37378 43.462H11.8269C11.8269 31.1778 21.7591 20.5326 34.5283 20.5326V16.0794ZM7.37378 43.462C7.37378 53.2052 12.5691 62.3889 20.9555 67.2048L23.1731 63.3432C16.2076 59.3431 11.8269 51.6548 11.8269 43.462H7.37378ZM20.9638 67.2095C25.1596 69.5954 29.6409 70.8446 34.5283 70.8446V66.3914C30.4478 66.3914 26.7211 65.3606 23.1649 63.3385L20.9638 67.2095Z" fill="black" mask="url(#path-1-outside-1_2153_783)"/>
</g>
<defs>
<clipPath id="clip0_2153_783">
<rect width="80" height="80" fill="white" transform="translate(0 6)"/>
</clipPath>
</defs>
</svg>
