<svg width="512" height="512" viewBox="0 0 512 512" fill="none" xmlns="http://www.w3.org/2000/svg">
<g clip-path="url(#clip0_2152_1371)">
<mask id="path-1-outside-1_2152_1371" maskUnits="userSpaceOnUse" x="25" y="40" width="462" height="418" fill="black">
<rect fill="white" x="25" y="40" width="462" height="418"/>
<path d="M244.9 442.768C130.724 442.768 40.612 357.264 40.612 249.232C40.612 139.664 131.748 55.696 244.9 55.696C348.324 55.696 408.74 92.56 444.58 149.392C462.5 177.552 471.204 210.832 471.204 249.232C471.204 326.544 432.804 384.4 369.316 417.68C338.084 434.064 296.612 442.768 244.9 442.768ZM232.612 419.216C325.284 419.216 402.084 343.952 402.084 249.744C402.084 156.56 325.796 80.272 232.612 80.272C137.892 80.272 64.676 159.12 64.676 249.744C64.676 310.16 96.932 366.992 148.644 396.688C174.756 411.536 202.404 419.216 232.612 419.216Z"/>
</mask>
<path d="M244.9 442.768C130.724 442.768 40.612 357.264 40.612 249.232C40.612 139.664 131.748 55.696 244.9 55.696C348.324 55.696 408.74 92.56 444.58 149.392C462.5 177.552 471.204 210.832 471.204 249.232C471.204 326.544 432.804 384.4 369.316 417.68C338.084 434.064 296.612 442.768 244.9 442.768ZM232.612 419.216C325.284 419.216 402.084 343.952 402.084 249.744C402.084 156.56 325.796 80.272 232.612 80.272C137.892 80.272 64.676 159.12 64.676 249.744C64.676 310.16 96.932 366.992 148.644 396.688C174.756 411.536 202.404 419.216 232.612 419.216Z" fill="white"/>
<path d="M444.58 149.392L431.892 157.393L431.909 157.419L431.925 157.445L444.58 149.392ZM369.316 417.68L362.352 404.395L362.348 404.397L369.316 417.68ZM148.644 396.688L141.174 409.696L141.202 409.712L141.229 409.727L148.644 396.688ZM244.9 427.768C138.241 427.768 55.612 348.233 55.612 249.232H25.612C25.612 366.295 123.207 457.768 244.9 457.768V427.768ZM55.612 249.232C55.612 148.819 139.134 70.696 244.9 70.696V40.696C124.362 40.696 25.612 130.509 25.612 249.232H55.612ZM244.9 70.696C344.092 70.696 399.256 105.642 431.892 157.393L457.268 141.391C418.224 79.4782 352.556 40.696 244.9 40.696V70.696ZM431.925 157.445C448.057 182.795 456.204 213.165 456.204 249.232H486.204C486.204 208.499 476.943 172.309 457.235 141.339L431.925 157.445ZM456.204 249.232C456.204 320.712 421.128 373.585 362.352 404.395L376.28 430.965C444.48 395.215 486.204 332.376 486.204 249.232H456.204ZM362.348 404.397C333.945 419.297 295.09 427.768 244.9 427.768V457.768C298.134 457.768 342.223 448.831 376.284 430.963L362.348 404.397ZM232.612 434.216C333.48 434.216 417.084 352.325 417.084 249.744H387.084C387.084 335.579 317.088 404.216 232.612 404.216V434.216ZM417.084 249.744C417.084 148.276 334.08 65.272 232.612 65.272V95.272C317.512 95.272 387.084 164.844 387.084 249.744H417.084ZM232.612 65.272C129.197 65.272 49.676 151.253 49.676 249.744H79.676C79.676 166.987 146.587 95.272 232.612 95.272V65.272ZM49.676 249.744C49.676 315.382 84.6761 377.251 141.174 409.696L156.114 383.68C109.188 356.733 79.676 304.938 79.676 249.744H49.676ZM141.229 409.727C169.496 425.8 199.686 434.216 232.612 434.216V404.216C205.122 404.216 180.016 397.272 156.059 383.649L141.229 409.727Z" fill="black" mask="url(#path-1-outside-1_2152_1371)"/>
</g>
<defs>
<clipPath id="clip0_2152_1371">
<rect width="512" height="512" fill="white"/>
</clipPath>
</defs>
</svg>
